<?xml version="1.0" encoding="UTF-8" standalone="no"?>
<!DOCTYPE svg PUBLIC "-//W3C//DTD SVG 1.1//EN"
 "http://www.w3.org/Graphics/SVG/1.1/DTD/svg11.dtd">
<!-- Generated by graphviz version 2.38.0 (20140413.2041)
 -->
<!-- Title: output Pages: 1 -->
<svg width="621pt" height="2123pt"
 viewBox="0.00 0.00 621.00 2123.00" xmlns="http://www.w3.org/2000/svg" xmlns:xlink="http://www.w3.org/1999/xlink">
<g id="graph0" class="graph" transform="scale(1 1) rotate(0) translate(4 2119)">
<title>output</title>
<polygon fill="white" stroke="none" points="-4,4 -4,-2119 617,-2119 617,4 -4,4"/>
<!-- Legend -->
<g id="node1" class="node"><title>Legend</title>
<polygon fill="#e0e0e0" stroke="none" points="8.5,-2060.5 8.5,-2083.5 209.5,-2083.5 209.5,-2060.5 8.5,-2060.5"/>
<polygon fill="none" stroke="black" points="8.5,-2060.5 8.5,-2083.5 209.5,-2083.5 209.5,-2060.5 8.5,-2060.5"/>
<text text-anchor="start" x="93" y="-2068.3" font-family="Times,serif" font-size="14.00">Layer</text>
<polygon fill="#88ffff" stroke="none" points="8.5,-2022.5 8.5,-2060.5 89.5,-2060.5 89.5,-2022.5 8.5,-2022.5"/>
<polygon fill="none" stroke="black" points="8.5,-2022.5 8.5,-2060.5 89.5,-2060.5 89.5,-2022.5 8.5,-2022.5"/>
<text text-anchor="start" x="12.5" y="-2045.3" font-family="Times,serif" font-size="14.00"> Complexity </text>
<text text-anchor="start" x="15" y="-2030.3" font-family="Times,serif" font-size="14.00"> (MFLOPs) </text>
<polygon fill="#ff88ff" stroke="none" points="89.5,-2022.5 89.5,-2060.5 164.5,-2060.5 164.5,-2022.5 89.5,-2022.5"/>
<polygon fill="none" stroke="black" points="89.5,-2022.5 89.5,-2060.5 164.5,-2060.5 164.5,-2022.5 89.5,-2022.5"/>
<text text-anchor="start" x="93.5" y="-2045.3" font-family="Times,serif" font-size="14.00"> Bandwidth </text>
<text text-anchor="start" x="103" y="-2030.3" font-family="Times,serif" font-size="14.00"> (MB/s) </text>
<polygon fill="#ffff88" stroke="none" points="164.5,-2022.5 164.5,-2060.5 209.5,-2060.5 209.5,-2022.5 164.5,-2022.5"/>
<polygon fill="none" stroke="black" points="164.5,-2022.5 164.5,-2060.5 209.5,-2060.5 209.5,-2022.5 164.5,-2022.5"/>
<text text-anchor="start" x="168.5" y="-2045.3" font-family="Times,serif" font-size="14.00"> Time </text>
<text text-anchor="start" x="172" y="-2030.3" font-family="Times,serif" font-size="14.00"> (ms)</text>
</g>
<!-- Input -->
<g id="node2" class="node"><title>Input</title>
<ellipse fill="none" stroke="black" cx="314.5" cy="-2053.5" rx="79.8859" ry="18"/>
<text text-anchor="middle" x="314.5" y="-2049.8" font-family="Times,serif" font-size="14.00">input: (160, 160, 3)</text>
</g>
<!-- data -->
<g id="node3" class="node"><title>data</title>
<polygon fill="#a3a3a3" stroke="none" points="117.5,-1801 117.5,-1824 300.5,-1824 300.5,-1801 117.5,-1801"/>
<polygon fill="none" stroke="black" points="117.5,-1801 117.5,-1824 300.5,-1824 300.5,-1801 117.5,-1801"/>
<text text-anchor="start" x="197.5" y="-1808.8" font-family="Times,serif" font-size="14.00">data</text>
<polygon fill="#dddddd" stroke="none" points="117.5,-1778 117.5,-1801 300.5,-1801 300.5,-1778 117.5,-1778"/>
<polygon fill="none" stroke="black" points="117.5,-1778 117.5,-1801 300.5,-1801 300.5,-1778 117.5,-1778"/>
<text text-anchor="start" x="173" y="-1785.8" font-family="Times,serif" font-size="14.00">(3, 160, 160)</text>
<polygon fill="#b1f1ef" stroke="none" points="117.5,-1740 117.5,-1778 193.5,-1778 193.5,-1740 117.5,-1740"/>
<polygon fill="none" stroke="black" points="117.5,-1740 117.5,-1778 193.5,-1778 193.5,-1740 117.5,-1740"/>
<text text-anchor="start" x="143" y="-1762.8" font-family="Times,serif" font-size="14.00"> 0.0 </text>
<text text-anchor="start" x="121.5" y="-1747.8" font-family="Times,serif" font-size="14.00"> (MFLOPs) </text>
<polygon fill="#b2189e" stroke="none" points="193.5,-1740 193.5,-1778 260.5,-1778 260.5,-1740 193.5,-1740"/>
<polygon fill="none" stroke="black" points="193.5,-1740 193.5,-1778 260.5,-1778 260.5,-1740 193.5,-1740"/>
<text text-anchor="start" x="197.5" y="-1762.8" font-family="Times,serif" font-size="14.00"> 38065.85 </text>
<text text-anchor="start" x="203" y="-1747.8" font-family="Times,serif" font-size="14.00"> (MB/s) </text>
<polygon fill="#ffffcc" stroke="none" points="260.5,-1740 260.5,-1778 300.5,-1778 300.5,-1740 260.5,-1740"/>
<polygon fill="none" stroke="black" points="260.5,-1740 260.5,-1778 300.5,-1778 300.5,-1740 260.5,-1740"/>
<text text-anchor="start" x="264.5" y="-1762.8" font-family="Times,serif" font-size="14.00"> 0.00 </text>
<text text-anchor="start" x="265.5" y="-1747.8" font-family="Times,serif" font-size="14.00"> (ms)</text>
</g>
<!-- Input&#45;&gt;data -->
<g id="edge1" class="edge"><title>Input&#45;&gt;data</title>
<path fill="none" stroke="black" d="M307.708,-2035.23C292.332,-1996.14 254.315,-1899.48 230.059,-1837.81"/>
<polygon fill="black" stroke="black" points="233.207,-1836.25 226.289,-1828.23 226.693,-1838.82 233.207,-1836.25"/>
</g>
<!-- scale1 -->
<g id="node4" class="node"><title>scale1</title>
<polygon fill="#a3a3a3" stroke="none" points="311.5,-1929 311.5,-1952 483.5,-1952 483.5,-1929 311.5,-1929"/>
<polygon fill="none" stroke="black" points="311.5,-1929 311.5,-1952 483.5,-1952 483.5,-1929 311.5,-1929"/>
<text text-anchor="start" x="380.5" y="-1936.8" font-family="Times,serif" font-size="14.00">scale1</text>
<polygon fill="#dddddd" stroke="none" points="311.5,-1906 311.5,-1929 483.5,-1929 483.5,-1906 311.5,-1906"/>
<polygon fill="none" stroke="black" points="311.5,-1906 311.5,-1929 483.5,-1929 483.5,-1906 311.5,-1906"/>
<text text-anchor="start" x="358" y="-1913.8" font-family="Times,serif" font-size="14.00">(16, 160, 160)</text>
<polygon fill="#8ee8e4" stroke="none" points="311.5,-1868 311.5,-1906 387.5,-1906 387.5,-1868 311.5,-1868"/>
<polygon fill="none" stroke="black" points="311.5,-1868 311.5,-1906 387.5,-1906 387.5,-1868 311.5,-1868"/>
<text text-anchor="start" x="323.5" y="-1890.8" font-family="Times,serif" font-size="14.00"> 22.1184 </text>
<text text-anchor="start" x="315.5" y="-1875.8" font-family="Times,serif" font-size="14.00"> (MFLOPs) </text>
<polygon fill="#fde1fa" stroke="none" points="387.5,-1868 387.5,-1906 443.5,-1906 443.5,-1868 387.5,-1868"/>
<polygon fill="none" stroke="black" points="387.5,-1868 387.5,-1906 443.5,-1906 443.5,-1868 387.5,-1868"/>
<text text-anchor="start" x="392.5" y="-1890.8" font-family="Times,serif" font-size="14.00"> 892.27 </text>
<text text-anchor="start" x="391.5" y="-1875.8" font-family="Times,serif" font-size="14.00"> (MB/s) </text>
<polygon fill="#ffff98" stroke="none" points="443.5,-1868 443.5,-1906 483.5,-1906 483.5,-1868 443.5,-1868"/>
<polygon fill="none" stroke="black" points="443.5,-1868 443.5,-1906 483.5,-1906 483.5,-1868 443.5,-1868"/>
<text text-anchor="start" x="447.5" y="-1890.8" font-family="Times,serif" font-size="14.00"> 1.48 </text>
<text text-anchor="start" x="448.5" y="-1875.8" font-family="Times,serif" font-size="14.00"> (ms)</text>
</g>
<!-- Input&#45;&gt;scale1 -->
<g id="edge2" class="edge"><title>Input&#45;&gt;scale1</title>
<path fill="none" stroke="black" d="M324.512,-2035.43C334.771,-2017.94 351.259,-1989.83 365.97,-1964.75"/>
<polygon fill="black" stroke="black" points="369.045,-1966.43 371.086,-1956.03 363.007,-1962.89 369.045,-1966.43"/>
</g>
<!-- Output -->
<g id="node19" class="node"><title>Output</title>
<ellipse fill="none" stroke="black" cx="314.5" cy="-18" rx="92.8835" ry="18"/>
<text text-anchor="middle" x="314.5" y="-14.3" font-family="Times,serif" font-size="14.00">output: [160, 160, 278]</text>
</g>
<!-- data&#45;&gt;Output -->
<g id="edge17" class="edge"><title>data&#45;&gt;Output</title>
<path fill="none" stroke="black" d="M221.109,-1735.98C234.111,-1685.53 252.5,-1601.07 252.5,-1527 252.5,-1527 252.5,-1527 252.5,-245 252.5,-167.649 241.699,-143.38 271.5,-72 275.79,-61.7253 282.724,-51.8525 289.783,-43.4709"/>
<polygon fill="black" stroke="black" points="292.466,-45.7212 296.507,-35.9275 287.241,-41.0633 292.466,-45.7212"/>
</g>
<!-- pool1 -->
<g id="node5" class="node"><title>pool1</title>
<polygon fill="#a3a3a3" stroke="none" points="334.5,-1801 334.5,-1824 506.5,-1824 506.5,-1801 334.5,-1801"/>
<polygon fill="none" stroke="black" points="334.5,-1801 334.5,-1824 506.5,-1824 506.5,-1801 334.5,-1801"/>
<text text-anchor="start" x="405" y="-1808.8" font-family="Times,serif" font-size="14.00">pool1</text>
<polygon fill="#dddddd" stroke="none" points="334.5,-1778 334.5,-1801 506.5,-1801 506.5,-1778 334.5,-1778"/>
<polygon fill="none" stroke="black" points="334.5,-1778 334.5,-1801 506.5,-1801 506.5,-1778 334.5,-1778"/>
<text text-anchor="start" x="388" y="-1785.8" font-family="Times,serif" font-size="14.00">(16, 80, 80)</text>
<polygon fill="#b0f0ee" stroke="none" points="334.5,-1740 334.5,-1778 410.5,-1778 410.5,-1740 334.5,-1740"/>
<polygon fill="none" stroke="black" points="334.5,-1740 334.5,-1778 410.5,-1778 410.5,-1740 334.5,-1740"/>
<text text-anchor="start" x="349.5" y="-1762.8" font-family="Times,serif" font-size="14.00"> 0.4096 </text>
<text text-anchor="start" x="338.5" y="-1747.8" font-family="Times,serif" font-size="14.00"> (MFLOPs) </text>
<polygon fill="#fee3fb" stroke="none" points="410.5,-1740 410.5,-1778 466.5,-1778 466.5,-1740 410.5,-1740"/>
<polygon fill="none" stroke="black" points="410.5,-1740 410.5,-1778 466.5,-1778 466.5,-1740 410.5,-1740"/>
<text text-anchor="start" x="415.5" y="-1762.8" font-family="Times,serif" font-size="14.00"> 669.01 </text>
<text text-anchor="start" x="414.5" y="-1747.8" font-family="Times,serif" font-size="14.00"> (MB/s) </text>
<polygon fill="#ffffa3" stroke="none" points="466.5,-1740 466.5,-1778 506.5,-1778 506.5,-1740 466.5,-1740"/>
<polygon fill="none" stroke="black" points="466.5,-1740 466.5,-1778 506.5,-1778 506.5,-1740 466.5,-1740"/>
<text text-anchor="start" x="470.5" y="-1762.8" font-family="Times,serif" font-size="14.00"> 1.17 </text>
<text text-anchor="start" x="471.5" y="-1747.8" font-family="Times,serif" font-size="14.00"> (ms)</text>
</g>
<!-- scale1&#45;&gt;pool1 -->
<g id="edge3" class="edge"><title>scale1&#45;&gt;pool1</title>
<path fill="none" stroke="black" d="M405.739,-1863.87C407.258,-1855.54 408.86,-1846.77 410.426,-1838.19"/>
<polygon fill="black" stroke="black" points="413.889,-1838.71 412.242,-1828.24 407.003,-1837.45 413.889,-1838.71"/>
</g>
<!-- scale2 -->
<g id="node6" class="node"><title>scale2</title>
<polygon fill="#a3a3a3" stroke="none" points="333.5,-1673 333.5,-1696 505.5,-1696 505.5,-1673 333.5,-1673"/>
<polygon fill="none" stroke="black" points="333.5,-1673 333.5,-1696 505.5,-1696 505.5,-1673 333.5,-1673"/>
<text text-anchor="start" x="402.5" y="-1680.8" font-family="Times,serif" font-size="14.00">scale2</text>
<polygon fill="#dddddd" stroke="none" points="333.5,-1650 333.5,-1673 505.5,-1673 505.5,-1650 333.5,-1650"/>
<polygon fill="none" stroke="black" points="333.5,-1650 333.5,-1673 505.5,-1673 505.5,-1650 333.5,-1650"/>
<text text-anchor="start" x="387" y="-1657.8" font-family="Times,serif" font-size="14.00">(32, 80, 80)</text>
<polygon fill="#56dad2" stroke="none" points="333.5,-1612 333.5,-1650 409.5,-1650 409.5,-1612 333.5,-1612"/>
<polygon fill="none" stroke="black" points="333.5,-1612 333.5,-1650 409.5,-1650 409.5,-1612 333.5,-1612"/>
<text text-anchor="start" x="345.5" y="-1634.8" font-family="Times,serif" font-size="14.00"> 58.9824 </text>
<text text-anchor="start" x="337.5" y="-1619.8" font-family="Times,serif" font-size="14.00"> (MFLOPs) </text>
<polygon fill="#fee2fa" stroke="none" points="409.5,-1612 409.5,-1650 465.5,-1650 465.5,-1612 409.5,-1612"/>
<polygon fill="none" stroke="black" points="409.5,-1612 409.5,-1650 465.5,-1650 465.5,-1612 409.5,-1612"/>
<text text-anchor="start" x="414.5" y="-1634.8" font-family="Times,serif" font-size="14.00"> 797.47 </text>
<text text-anchor="start" x="413.5" y="-1619.8" font-family="Times,serif" font-size="14.00"> (MB/s) </text>
<polygon fill="#ffff7e" stroke="none" points="465.5,-1612 465.5,-1650 505.5,-1650 505.5,-1612 465.5,-1612"/>
<polygon fill="none" stroke="black" points="465.5,-1612 465.5,-1650 505.5,-1650 505.5,-1612 465.5,-1612"/>
<text text-anchor="start" x="469.5" y="-1634.8" font-family="Times,serif" font-size="14.00"> 2.22 </text>
<text text-anchor="start" x="470.5" y="-1619.8" font-family="Times,serif" font-size="14.00"> (ms)</text>
</g>
<!-- pool1&#45;&gt;scale2 -->
<g id="edge4" class="edge"><title>pool1&#45;&gt;scale2</title>
<path fill="none" stroke="black" d="M420.142,-1735.87C420.076,-1727.63 420.008,-1718.96 419.94,-1710.47"/>
<polygon fill="black" stroke="black" points="423.438,-1710.21 419.859,-1700.24 416.439,-1710.27 423.438,-1710.21"/>
</g>
<!-- pool2 -->
<g id="node7" class="node"><title>pool2</title>
<polygon fill="#a3a3a3" stroke="none" points="311.5,-1545 311.5,-1568 483.5,-1568 483.5,-1545 311.5,-1545"/>
<polygon fill="none" stroke="black" points="311.5,-1545 311.5,-1568 483.5,-1568 483.5,-1545 311.5,-1545"/>
<text text-anchor="start" x="382" y="-1552.8" font-family="Times,serif" font-size="14.00">pool2</text>
<polygon fill="#dddddd" stroke="none" points="311.5,-1522 311.5,-1545 483.5,-1545 483.5,-1522 311.5,-1522"/>
<polygon fill="none" stroke="black" points="311.5,-1522 311.5,-1545 483.5,-1545 483.5,-1522 311.5,-1522"/>
<text text-anchor="start" x="365" y="-1529.8" font-family="Times,serif" font-size="14.00">(32, 40, 40)</text>
<polygon fill="#b0f0ee" stroke="none" points="311.5,-1484 311.5,-1522 387.5,-1522 387.5,-1484 311.5,-1484"/>
<polygon fill="none" stroke="black" points="311.5,-1484 311.5,-1522 387.5,-1522 387.5,-1484 311.5,-1484"/>
<text text-anchor="start" x="326.5" y="-1506.8" font-family="Times,serif" font-size="14.00"> 0.2048 </text>
<text text-anchor="start" x="315.5" y="-1491.8" font-family="Times,serif" font-size="14.00"> (MFLOPs) </text>
<polygon fill="#fee2fa" stroke="none" points="387.5,-1484 387.5,-1522 443.5,-1522 443.5,-1484 387.5,-1484"/>
<polygon fill="none" stroke="black" points="387.5,-1484 387.5,-1522 443.5,-1522 443.5,-1484 387.5,-1484"/>
<text text-anchor="start" x="392.5" y="-1506.8" font-family="Times,serif" font-size="14.00"> 749.94 </text>
<text text-anchor="start" x="391.5" y="-1491.8" font-family="Times,serif" font-size="14.00"> (MB/s) </text>
<polygon fill="#ffffb9" stroke="none" points="443.5,-1484 443.5,-1522 483.5,-1522 483.5,-1484 443.5,-1484"/>
<polygon fill="none" stroke="black" points="443.5,-1484 443.5,-1522 483.5,-1522 483.5,-1484 443.5,-1484"/>
<text text-anchor="start" x="447.5" y="-1506.8" font-family="Times,serif" font-size="14.00"> 0.52 </text>
<text text-anchor="start" x="448.5" y="-1491.8" font-family="Times,serif" font-size="14.00"> (ms)</text>
</g>
<!-- scale2&#45;&gt;pool2 -->
<g id="edge5" class="edge"><title>scale2&#45;&gt;pool2</title>
<path fill="none" stroke="black" d="M411.62,-1607.87C410.166,-1599.54 408.634,-1590.77 407.136,-1582.19"/>
<polygon fill="black" stroke="black" points="410.567,-1581.49 405.399,-1572.24 403.672,-1582.69 410.567,-1581.49"/>
</g>
<!-- scale3 -->
<g id="node8" class="node"><title>scale3</title>
<polygon fill="#a3a3a3" stroke="none" points="306.5,-1417 306.5,-1440 478.5,-1440 478.5,-1417 306.5,-1417"/>
<polygon fill="none" stroke="black" points="306.5,-1417 306.5,-1440 478.5,-1440 478.5,-1417 306.5,-1417"/>
<text text-anchor="start" x="375.5" y="-1424.8" font-family="Times,serif" font-size="14.00">scale3</text>
<polygon fill="#dddddd" stroke="none" points="306.5,-1394 306.5,-1417 478.5,-1417 478.5,-1394 306.5,-1394"/>
<polygon fill="none" stroke="black" points="306.5,-1394 306.5,-1417 478.5,-1417 478.5,-1394 306.5,-1394"/>
<text text-anchor="start" x="360" y="-1401.8" font-family="Times,serif" font-size="14.00">(64, 40, 40)</text>
<polygon fill="#56dad2" stroke="none" points="306.5,-1356 306.5,-1394 382.5,-1394 382.5,-1356 306.5,-1356"/>
<polygon fill="none" stroke="black" points="306.5,-1356 306.5,-1394 382.5,-1394 382.5,-1356 306.5,-1356"/>
<text text-anchor="start" x="318.5" y="-1378.8" font-family="Times,serif" font-size="14.00"> 58.9824 </text>
<text text-anchor="start" x="310.5" y="-1363.8" font-family="Times,serif" font-size="14.00"> (MFLOPs) </text>
<polygon fill="#fee3fb" stroke="none" points="382.5,-1356 382.5,-1394 438.5,-1394 438.5,-1356 382.5,-1356"/>
<polygon fill="none" stroke="black" points="382.5,-1356 382.5,-1394 438.5,-1394 438.5,-1356 382.5,-1356"/>
<text text-anchor="start" x="387.5" y="-1378.8" font-family="Times,serif" font-size="14.00"> 569.91 </text>
<text text-anchor="start" x="386.5" y="-1363.8" font-family="Times,serif" font-size="14.00"> (MB/s) </text>
<polygon fill="#ffff93" stroke="none" points="438.5,-1356 438.5,-1394 478.5,-1394 478.5,-1356 438.5,-1356"/>
<polygon fill="none" stroke="black" points="438.5,-1356 438.5,-1394 478.5,-1394 478.5,-1356 438.5,-1356"/>
<text text-anchor="start" x="442.5" y="-1378.8" font-family="Times,serif" font-size="14.00"> 1.61 </text>
<text text-anchor="start" x="443.5" y="-1363.8" font-family="Times,serif" font-size="14.00"> (ms)</text>
</g>
<!-- pool2&#45;&gt;scale3 -->
<g id="edge6" class="edge"><title>pool2&#45;&gt;scale3</title>
<path fill="none" stroke="black" d="M395.709,-1479.87C395.382,-1471.63 395.038,-1462.96 394.701,-1454.47"/>
<polygon fill="black" stroke="black" points="398.189,-1454.09 394.295,-1444.24 391.195,-1454.37 398.189,-1454.09"/>
</g>
<!-- pool3 -->
<g id="node9" class="node"><title>pool3</title>
<polygon fill="#a3a3a3" stroke="none" points="295.5,-1289 295.5,-1312 467.5,-1312 467.5,-1289 295.5,-1289"/>
<polygon fill="none" stroke="black" points="295.5,-1289 295.5,-1312 467.5,-1312 467.5,-1289 295.5,-1289"/>
<text text-anchor="start" x="366" y="-1296.8" font-family="Times,serif" font-size="14.00">pool3</text>
<polygon fill="#dddddd" stroke="none" points="295.5,-1266 295.5,-1289 467.5,-1289 467.5,-1266 295.5,-1266"/>
<polygon fill="none" stroke="black" points="295.5,-1266 295.5,-1289 467.5,-1289 467.5,-1266 295.5,-1266"/>
<text text-anchor="start" x="349" y="-1273.8" font-family="Times,serif" font-size="14.00">(64, 20, 20)</text>
<polygon fill="#b0f0ee" stroke="none" points="295.5,-1228 295.5,-1266 371.5,-1266 371.5,-1228 295.5,-1228"/>
<polygon fill="none" stroke="black" points="295.5,-1228 295.5,-1266 371.5,-1266 371.5,-1228 295.5,-1228"/>
<text text-anchor="start" x="310.5" y="-1250.8" font-family="Times,serif" font-size="14.00"> 0.1024 </text>
<text text-anchor="start" x="299.5" y="-1235.8" font-family="Times,serif" font-size="14.00"> (MFLOPs) </text>
<polygon fill="#fee2fa" stroke="none" points="371.5,-1228 371.5,-1266 427.5,-1266 427.5,-1228 371.5,-1228"/>
<polygon fill="none" stroke="black" points="371.5,-1228 371.5,-1266 427.5,-1266 427.5,-1228 371.5,-1228"/>
<text text-anchor="start" x="376.5" y="-1250.8" font-family="Times,serif" font-size="14.00"> 746.24 </text>
<text text-anchor="start" x="375.5" y="-1235.8" font-family="Times,serif" font-size="14.00"> (MB/s) </text>
<polygon fill="#ffffc3" stroke="none" points="427.5,-1228 427.5,-1266 467.5,-1266 467.5,-1228 427.5,-1228"/>
<polygon fill="none" stroke="black" points="427.5,-1228 427.5,-1266 467.5,-1266 467.5,-1228 427.5,-1228"/>
<text text-anchor="start" x="431.5" y="-1250.8" font-family="Times,serif" font-size="14.00"> 0.26 </text>
<text text-anchor="start" x="432.5" y="-1235.8" font-family="Times,serif" font-size="14.00"> (ms)</text>
</g>
<!-- scale3&#45;&gt;pool3 -->
<g id="edge7" class="edge"><title>scale3&#45;&gt;pool3</title>
<path fill="none" stroke="black" d="M388.56,-1351.87C387.841,-1343.63 387.084,-1334.96 386.342,-1326.47"/>
<polygon fill="black" stroke="black" points="389.806,-1325.9 385.45,-1316.24 382.833,-1326.51 389.806,-1325.9"/>
</g>
<!-- scale4 -->
<g id="node10" class="node"><title>scale4</title>
<polygon fill="#a3a3a3" stroke="none" points="294.5,-1161 294.5,-1184 466.5,-1184 466.5,-1161 294.5,-1161"/>
<polygon fill="none" stroke="black" points="294.5,-1161 294.5,-1184 466.5,-1184 466.5,-1161 294.5,-1161"/>
<text text-anchor="start" x="363.5" y="-1168.8" font-family="Times,serif" font-size="14.00">scale4</text>
<polygon fill="#dddddd" stroke="none" points="294.5,-1138 294.5,-1161 466.5,-1161 466.5,-1138 294.5,-1138"/>
<polygon fill="none" stroke="black" points="294.5,-1138 294.5,-1161 466.5,-1161 466.5,-1138 294.5,-1138"/>
<text text-anchor="start" x="344.5" y="-1145.8" font-family="Times,serif" font-size="14.00">(128, 20, 20)</text>
<polygon fill="#56dad2" stroke="none" points="294.5,-1100 294.5,-1138 370.5,-1138 370.5,-1100 294.5,-1100"/>
<polygon fill="none" stroke="black" points="294.5,-1100 294.5,-1138 370.5,-1138 370.5,-1100 294.5,-1100"/>
<text text-anchor="start" x="306.5" y="-1122.8" font-family="Times,serif" font-size="14.00"> 58.9824 </text>
<text text-anchor="start" x="298.5" y="-1107.8" font-family="Times,serif" font-size="14.00"> (MFLOPs) </text>
<polygon fill="#fee4fb" stroke="none" points="370.5,-1100 370.5,-1138 426.5,-1138 426.5,-1100 370.5,-1100"/>
<polygon fill="none" stroke="black" points="370.5,-1100 370.5,-1138 426.5,-1138 426.5,-1100 370.5,-1100"/>
<text text-anchor="start" x="375.5" y="-1122.8" font-family="Times,serif" font-size="14.00"> 335.43 </text>
<text text-anchor="start" x="374.5" y="-1107.8" font-family="Times,serif" font-size="14.00"> (MB/s) </text>
<polygon fill="#ffff8f" stroke="none" points="426.5,-1100 426.5,-1138 466.5,-1138 466.5,-1100 426.5,-1100"/>
<polygon fill="none" stroke="black" points="426.5,-1100 426.5,-1138 466.5,-1138 466.5,-1100 426.5,-1100"/>
<text text-anchor="start" x="430.5" y="-1122.8" font-family="Times,serif" font-size="14.00"> 1.73 </text>
<text text-anchor="start" x="431.5" y="-1107.8" font-family="Times,serif" font-size="14.00"> (ms)</text>
</g>
<!-- pool3&#45;&gt;scale4 -->
<g id="edge8" class="edge"><title>pool3&#45;&gt;scale4</title>
<path fill="none" stroke="black" d="M381.142,-1223.87C381.076,-1215.63 381.008,-1206.96 380.94,-1198.47"/>
<polygon fill="black" stroke="black" points="384.438,-1198.21 380.859,-1188.24 377.439,-1198.27 384.438,-1198.21"/>
</g>
<!-- pool4 -->
<g id="node11" class="node"><title>pool4</title>
<polygon fill="#a3a3a3" stroke="none" points="291.5,-1033 291.5,-1056 463.5,-1056 463.5,-1033 291.5,-1033"/>
<polygon fill="none" stroke="black" points="291.5,-1033 291.5,-1056 463.5,-1056 463.5,-1033 291.5,-1033"/>
<text text-anchor="start" x="362" y="-1040.8" font-family="Times,serif" font-size="14.00">pool4</text>
<polygon fill="#dddddd" stroke="none" points="291.5,-1010 291.5,-1033 463.5,-1033 463.5,-1010 291.5,-1010"/>
<polygon fill="none" stroke="black" points="291.5,-1010 291.5,-1033 463.5,-1033 463.5,-1010 291.5,-1010"/>
<text text-anchor="start" x="341.5" y="-1017.8" font-family="Times,serif" font-size="14.00">(128, 10, 10)</text>
<polygon fill="#b0f0ee" stroke="none" points="291.5,-972 291.5,-1010 367.5,-1010 367.5,-972 291.5,-972"/>
<polygon fill="none" stroke="black" points="291.5,-972 291.5,-1010 367.5,-1010 367.5,-972 291.5,-972"/>
<text text-anchor="start" x="306.5" y="-994.8" font-family="Times,serif" font-size="14.00"> 0.0512 </text>
<text text-anchor="start" x="295.5" y="-979.8" font-family="Times,serif" font-size="14.00"> (MFLOPs) </text>
<polygon fill="#fee3fb" stroke="none" points="367.5,-972 367.5,-1010 423.5,-1010 423.5,-972 367.5,-972"/>
<polygon fill="none" stroke="black" points="367.5,-972 367.5,-1010 423.5,-1010 423.5,-972 367.5,-972"/>
<text text-anchor="start" x="372.5" y="-994.8" font-family="Times,serif" font-size="14.00"> 696.01 </text>
<text text-anchor="start" x="371.5" y="-979.8" font-family="Times,serif" font-size="14.00"> (MB/s) </text>
<polygon fill="#ffffc7" stroke="none" points="423.5,-972 423.5,-1010 463.5,-1010 463.5,-972 423.5,-972"/>
<polygon fill="none" stroke="black" points="423.5,-972 423.5,-1010 463.5,-1010 463.5,-972 423.5,-972"/>
<text text-anchor="start" x="427.5" y="-994.8" font-family="Times,serif" font-size="14.00"> 0.14 </text>
<text text-anchor="start" x="428.5" y="-979.8" font-family="Times,serif" font-size="14.00"> (ms)</text>
</g>
<!-- scale4&#45;&gt;pool4 -->
<g id="edge9" class="edge"><title>scale4&#45;&gt;pool4</title>
<path fill="none" stroke="black" d="M379.425,-1095.87C379.229,-1087.63 379.023,-1078.96 378.821,-1070.47"/>
<polygon fill="black" stroke="black" points="382.314,-1070.16 378.577,-1060.24 375.316,-1070.32 382.314,-1070.16"/>
</g>
<!-- scale5 -->
<g id="node12" class="node"><title>scale5</title>
<polygon fill="#a3a3a3" stroke="none" points="291.5,-905 291.5,-928 463.5,-928 463.5,-905 291.5,-905"/>
<polygon fill="none" stroke="black" points="291.5,-905 291.5,-928 463.5,-928 463.5,-905 291.5,-905"/>
<text text-anchor="start" x="360.5" y="-912.8" font-family="Times,serif" font-size="14.00">scale5</text>
<polygon fill="#dddddd" stroke="none" points="291.5,-882 291.5,-905 463.5,-905 463.5,-882 291.5,-882"/>
<polygon fill="none" stroke="black" points="291.5,-882 291.5,-905 463.5,-905 463.5,-882 291.5,-882"/>
<text text-anchor="start" x="341.5" y="-889.8" font-family="Times,serif" font-size="14.00">(256, 10, 10)</text>
<polygon fill="#56dad2" stroke="none" points="291.5,-844 291.5,-882 367.5,-882 367.5,-844 291.5,-844"/>
<polygon fill="none" stroke="black" points="291.5,-844 291.5,-882 367.5,-882 367.5,-844 291.5,-844"/>
<text text-anchor="start" x="303.5" y="-866.8" font-family="Times,serif" font-size="14.00"> 58.9824 </text>
<text text-anchor="start" x="295.5" y="-851.8" font-family="Times,serif" font-size="14.00"> (MFLOPs) </text>
<polygon fill="#fee4fb" stroke="none" points="367.5,-844 367.5,-882 423.5,-882 423.5,-844 367.5,-844"/>
<polygon fill="none" stroke="black" points="367.5,-844 367.5,-882 423.5,-882 423.5,-844 367.5,-844"/>
<text text-anchor="start" x="372.5" y="-866.8" font-family="Times,serif" font-size="14.00"> 376.46 </text>
<text text-anchor="start" x="371.5" y="-851.8" font-family="Times,serif" font-size="14.00"> (MB/s) </text>
<polygon fill="#ffff83" stroke="none" points="423.5,-844 423.5,-882 463.5,-882 463.5,-844 423.5,-844"/>
<polygon fill="none" stroke="black" points="423.5,-844 423.5,-882 463.5,-882 463.5,-844 423.5,-844"/>
<text text-anchor="start" x="427.5" y="-866.8" font-family="Times,serif" font-size="14.00"> 2.08 </text>
<text text-anchor="start" x="428.5" y="-851.8" font-family="Times,serif" font-size="14.00"> (ms)</text>
</g>
<!-- pool4&#45;&gt;scale5 -->
<g id="edge10" class="edge"><title>pool4&#45;&gt;scale5</title>
<path fill="none" stroke="black" d="M377.5,-967.867C377.5,-959.634 377.5,-950.957 377.5,-942.465"/>
<polygon fill="black" stroke="black" points="381,-942.241 377.5,-932.241 374,-942.241 381,-942.241"/>
</g>
<!-- pool5 -->
<g id="node13" class="node"><title>pool5</title>
<polygon fill="#a3a3a3" stroke="none" points="290.5,-777 290.5,-800 462.5,-800 462.5,-777 290.5,-777"/>
<polygon fill="none" stroke="black" points="290.5,-777 290.5,-800 462.5,-800 462.5,-777 290.5,-777"/>
<text text-anchor="start" x="361" y="-784.8" font-family="Times,serif" font-size="14.00">pool5</text>
<polygon fill="#dddddd" stroke="none" points="290.5,-754 290.5,-777 462.5,-777 462.5,-754 290.5,-754"/>
<polygon fill="none" stroke="black" points="290.5,-754 290.5,-777 462.5,-777 462.5,-754 290.5,-754"/>
<text text-anchor="start" x="347.5" y="-761.8" font-family="Times,serif" font-size="14.00">(256, 5, 5)</text>
<polygon fill="#b0f0ee" stroke="none" points="290.5,-716 290.5,-754 366.5,-754 366.5,-716 290.5,-716"/>
<polygon fill="none" stroke="black" points="290.5,-716 290.5,-754 366.5,-754 366.5,-716 290.5,-716"/>
<text text-anchor="start" x="305.5" y="-738.8" font-family="Times,serif" font-size="14.00"> 0.0256 </text>
<text text-anchor="start" x="294.5" y="-723.8" font-family="Times,serif" font-size="14.00"> (MFLOPs) </text>
<polygon fill="#fee3fb" stroke="none" points="366.5,-716 366.5,-754 422.5,-754 422.5,-716 366.5,-716"/>
<polygon fill="none" stroke="black" points="366.5,-716 366.5,-754 422.5,-754 422.5,-716 366.5,-716"/>
<text text-anchor="start" x="371.5" y="-738.8" font-family="Times,serif" font-size="14.00"> 623.69 </text>
<text text-anchor="start" x="370.5" y="-723.8" font-family="Times,serif" font-size="14.00"> (MB/s) </text>
<polygon fill="#ffffc9" stroke="none" points="422.5,-716 422.5,-754 462.5,-754 462.5,-716 422.5,-716"/>
<polygon fill="none" stroke="black" points="422.5,-716 422.5,-754 462.5,-754 462.5,-716 422.5,-716"/>
<text text-anchor="start" x="426.5" y="-738.8" font-family="Times,serif" font-size="14.00"> 0.08 </text>
<text text-anchor="start" x="427.5" y="-723.8" font-family="Times,serif" font-size="14.00"> (ms)</text>
</g>
<!-- scale5&#45;&gt;pool5 -->
<g id="edge11" class="edge"><title>scale5&#45;&gt;pool5</title>
<path fill="none" stroke="black" d="M377.142,-839.867C377.076,-831.634 377.008,-822.957 376.94,-814.465"/>
<polygon fill="black" stroke="black" points="380.438,-814.213 376.859,-804.241 373.439,-814.269 380.438,-814.213"/>
</g>
<!-- scale6 -->
<g id="node14" class="node"><title>scale6</title>
<polygon fill="#a3a3a3" stroke="none" points="290.5,-649 290.5,-672 462.5,-672 462.5,-649 290.5,-649"/>
<polygon fill="none" stroke="black" points="290.5,-649 290.5,-672 462.5,-672 462.5,-649 290.5,-649"/>
<text text-anchor="start" x="359.5" y="-656.8" font-family="Times,serif" font-size="14.00">scale6</text>
<polygon fill="#dddddd" stroke="none" points="290.5,-626 290.5,-649 462.5,-649 462.5,-626 290.5,-626"/>
<polygon fill="none" stroke="black" points="290.5,-626 290.5,-649 462.5,-649 462.5,-626 290.5,-626"/>
<text text-anchor="start" x="347.5" y="-633.8" font-family="Times,serif" font-size="14.00">(512, 5, 5)</text>
<polygon fill="#56dad2" stroke="none" points="290.5,-588 290.5,-626 366.5,-626 366.5,-588 290.5,-588"/>
<polygon fill="none" stroke="black" points="290.5,-588 290.5,-626 366.5,-626 366.5,-588 290.5,-588"/>
<text text-anchor="start" x="302.5" y="-610.8" font-family="Times,serif" font-size="14.00"> 58.9824 </text>
<text text-anchor="start" x="294.5" y="-595.8" font-family="Times,serif" font-size="14.00"> (MFLOPs) </text>
<polygon fill="#fee3fb" stroke="none" points="366.5,-588 366.5,-626 422.5,-626 422.5,-588 366.5,-588"/>
<polygon fill="none" stroke="black" points="366.5,-588 366.5,-626 422.5,-626 422.5,-588 366.5,-588"/>
<text text-anchor="start" x="371.5" y="-610.8" font-family="Times,serif" font-size="14.00"> 613.93 </text>
<text text-anchor="start" x="370.5" y="-595.8" font-family="Times,serif" font-size="14.00"> (MB/s) </text>
<polygon fill="#ffff45" stroke="none" points="422.5,-588 422.5,-626 462.5,-626 462.5,-588 422.5,-588"/>
<polygon fill="none" stroke="black" points="422.5,-588 422.5,-626 462.5,-626 462.5,-588 422.5,-588"/>
<text text-anchor="start" x="426.5" y="-610.8" font-family="Times,serif" font-size="14.00"> 3.84 </text>
<text text-anchor="start" x="427.5" y="-595.8" font-family="Times,serif" font-size="14.00"> (ms)</text>
</g>
<!-- pool5&#45;&gt;scale6 -->
<g id="edge12" class="edge"><title>pool5&#45;&gt;scale6</title>
<path fill="none" stroke="black" d="M376.5,-711.867C376.5,-703.634 376.5,-694.957 376.5,-686.465"/>
<polygon fill="black" stroke="black" points="380,-686.241 376.5,-676.241 373,-686.241 380,-686.241"/>
</g>
<!-- pool6 -->
<g id="node15" class="node"><title>pool6</title>
<polygon fill="#a3a3a3" stroke="none" points="290.5,-521 290.5,-544 462.5,-544 462.5,-521 290.5,-521"/>
<polygon fill="none" stroke="black" points="290.5,-521 290.5,-544 462.5,-544 462.5,-521 290.5,-521"/>
<text text-anchor="start" x="361" y="-528.8" font-family="Times,serif" font-size="14.00">pool6</text>
<polygon fill="#dddddd" stroke="none" points="290.5,-498 290.5,-521 462.5,-521 462.5,-498 290.5,-498"/>
<polygon fill="none" stroke="black" points="290.5,-498 290.5,-521 462.5,-521 462.5,-498 290.5,-498"/>
<text text-anchor="start" x="347.5" y="-505.8" font-family="Times,serif" font-size="14.00">(512, 3, 3)</text>
<polygon fill="#b0f0ee" stroke="none" points="290.5,-460 290.5,-498 366.5,-498 366.5,-460 290.5,-460"/>
<polygon fill="none" stroke="black" points="290.5,-460 290.5,-498 366.5,-498 366.5,-460 290.5,-460"/>
<text text-anchor="start" x="299" y="-482.8" font-family="Times,serif" font-size="14.00"> 0.018432 </text>
<text text-anchor="start" x="294.5" y="-467.8" font-family="Times,serif" font-size="14.00"> (MFLOPs) </text>
<polygon fill="#fee4fb" stroke="none" points="366.5,-460 366.5,-498 422.5,-498 422.5,-460 366.5,-460"/>
<polygon fill="none" stroke="black" points="366.5,-460 366.5,-498 422.5,-498 422.5,-460 366.5,-460"/>
<text text-anchor="start" x="371.5" y="-482.8" font-family="Times,serif" font-size="14.00"> 442.29 </text>
<text text-anchor="start" x="370.5" y="-467.8" font-family="Times,serif" font-size="14.00"> (MB/s) </text>
<polygon fill="#ffffca" stroke="none" points="422.5,-460 422.5,-498 462.5,-498 462.5,-460 422.5,-460"/>
<polygon fill="none" stroke="black" points="422.5,-460 422.5,-498 462.5,-498 462.5,-460 422.5,-460"/>
<text text-anchor="start" x="426.5" y="-482.8" font-family="Times,serif" font-size="14.00"> 0.06 </text>
<text text-anchor="start" x="427.5" y="-467.8" font-family="Times,serif" font-size="14.00"> (ms)</text>
</g>
<!-- scale6&#45;&gt;pool6 -->
<g id="edge13" class="edge"><title>scale6&#45;&gt;pool6</title>
<path fill="none" stroke="black" d="M376.5,-583.867C376.5,-575.634 376.5,-566.957 376.5,-558.465"/>
<polygon fill="black" stroke="black" points="380,-558.241 376.5,-548.241 373,-558.241 380,-558.241"/>
</g>
<!-- scale7 -->
<g id="node16" class="node"><title>scale7</title>
<polygon fill="#a3a3a3" stroke="none" points="288.5,-393 288.5,-416 464.5,-416 464.5,-393 288.5,-393"/>
<polygon fill="none" stroke="black" points="288.5,-393 288.5,-416 464.5,-416 464.5,-393 288.5,-393"/>
<text text-anchor="start" x="359.5" y="-400.8" font-family="Times,serif" font-size="14.00">scale7</text>
<polygon fill="#dddddd" stroke="none" points="288.5,-370 288.5,-393 464.5,-393 464.5,-370 288.5,-370"/>
<polygon fill="none" stroke="black" points="288.5,-370 288.5,-393 464.5,-393 464.5,-370 288.5,-370"/>
<text text-anchor="start" x="344" y="-377.8" font-family="Times,serif" font-size="14.00">(1024, 3, 3)</text>
<polygon fill="#2ed1c6" stroke="none" points="288.5,-332 288.5,-370 364.5,-370 364.5,-332 288.5,-332"/>
<polygon fill="none" stroke="black" points="288.5,-332 288.5,-370 364.5,-370 364.5,-332 288.5,-332"/>
<text text-anchor="start" x="293.5" y="-354.8" font-family="Times,serif" font-size="14.00"> 84.934656 </text>
<text text-anchor="start" x="292.5" y="-339.8" font-family="Times,serif" font-size="14.00"> (MFLOPs) </text>
<polygon fill="#fcdef8" stroke="none" points="364.5,-332 364.5,-370 424.5,-370 424.5,-332 364.5,-332"/>
<polygon fill="none" stroke="black" points="364.5,-332 364.5,-370 424.5,-370 424.5,-332 364.5,-332"/>
<text text-anchor="start" x="368.5" y="-354.8" font-family="Times,serif" font-size="14.00"> 1558.86 </text>
<text text-anchor="start" x="370.5" y="-339.8" font-family="Times,serif" font-size="14.00"> (MB/s) </text>
<polygon fill="#ffff00" stroke="none" points="424.5,-332 424.5,-370 464.5,-370 464.5,-332 424.5,-332"/>
<polygon fill="none" stroke="black" points="424.5,-332 424.5,-370 464.5,-370 464.5,-332 424.5,-332"/>
<text text-anchor="start" x="428.5" y="-354.8" font-family="Times,serif" font-size="14.00"> 5.82 </text>
<text text-anchor="start" x="429.5" y="-339.8" font-family="Times,serif" font-size="14.00"> (ms)</text>
</g>
<!-- pool6&#45;&gt;scale7 -->
<g id="edge14" class="edge"><title>pool6&#45;&gt;scale7</title>
<path fill="none" stroke="black" d="M376.5,-455.867C376.5,-447.634 376.5,-438.957 376.5,-430.465"/>
<polygon fill="black" stroke="black" points="380,-430.241 376.5,-420.241 373,-430.241 380,-430.241"/>
</g>
<!-- scale8 -->
<g id="node17" class="node"><title>scale8</title>
<polygon fill="#a3a3a3" stroke="none" points="290.5,-265 290.5,-288 462.5,-288 462.5,-265 290.5,-265"/>
<polygon fill="none" stroke="black" points="290.5,-265 290.5,-288 462.5,-288 462.5,-265 290.5,-265"/>
<text text-anchor="start" x="359.5" y="-272.8" font-family="Times,serif" font-size="14.00">scale8</text>
<polygon fill="#dddddd" stroke="none" points="290.5,-242 290.5,-265 462.5,-265 462.5,-242 290.5,-242"/>
<polygon fill="none" stroke="black" points="290.5,-242 290.5,-265 462.5,-265 462.5,-242 290.5,-242"/>
<text text-anchor="start" x="347.5" y="-249.8" font-family="Times,serif" font-size="14.00">(256, 3, 3)</text>
<polygon fill="#6fe1da" stroke="none" points="290.5,-204 290.5,-242 366.5,-242 366.5,-204 290.5,-204"/>
<polygon fill="none" stroke="black" points="290.5,-204 290.5,-242 366.5,-242 366.5,-204 290.5,-204"/>
<text text-anchor="start" x="295.5" y="-226.8" font-family="Times,serif" font-size="14.00"> 42.467328 </text>
<text text-anchor="start" x="294.5" y="-211.8" font-family="Times,serif" font-size="14.00"> (MFLOPs) </text>
<polygon fill="#fde2fa" stroke="none" points="366.5,-204 366.5,-242 422.5,-242 422.5,-204 366.5,-204"/>
<polygon fill="none" stroke="black" points="366.5,-204 366.5,-242 422.5,-242 422.5,-204 366.5,-204"/>
<text text-anchor="start" x="371.5" y="-226.8" font-family="Times,serif" font-size="14.00"> 829.45 </text>
<text text-anchor="start" x="370.5" y="-211.8" font-family="Times,serif" font-size="14.00"> (MB/s) </text>
<polygon fill="#ffff07" stroke="none" points="422.5,-204 422.5,-242 462.5,-242 462.5,-204 422.5,-204"/>
<polygon fill="none" stroke="black" points="422.5,-204 422.5,-242 462.5,-242 462.5,-204 422.5,-204"/>
<text text-anchor="start" x="426.5" y="-226.8" font-family="Times,serif" font-size="14.00"> 5.62 </text>
<text text-anchor="start" x="427.5" y="-211.8" font-family="Times,serif" font-size="14.00"> (ms)</text>
</g>
<!-- scale7&#45;&gt;scale8 -->
<g id="edge15" class="edge"><title>scale7&#45;&gt;scale8</title>
<path fill="none" stroke="black" d="M376.5,-327.867C376.5,-319.634 376.5,-310.957 376.5,-302.465"/>
<polygon fill="black" stroke="black" points="380,-302.241 376.5,-292.241 373,-302.241 380,-302.241"/>
</g>
<!-- fc9 -->
<g id="node18" class="node"><title>fc9</title>
<polygon fill="#a3a3a3" stroke="none" points="288.5,-137 288.5,-160 464.5,-160 464.5,-137 288.5,-137"/>
<polygon fill="none" stroke="black" points="288.5,-137 288.5,-160 464.5,-160 464.5,-137 288.5,-137"/>
<text text-anchor="start" x="367.5" y="-144.8" font-family="Times,serif" font-size="14.00">fc9</text>
<polygon fill="#dddddd" stroke="none" points="288.5,-114 288.5,-137 464.5,-137 464.5,-114 288.5,-114"/>
<polygon fill="none" stroke="black" points="288.5,-114 288.5,-137 464.5,-137 464.5,-114 288.5,-114"/>
<text text-anchor="start" x="347.5" y="-121.8" font-family="Times,serif" font-size="14.00">(275, 1, 1)</text>
<polygon fill="#aff0ee" stroke="none" points="288.5,-76 288.5,-114 364.5,-114 364.5,-76 288.5,-76"/>
<polygon fill="none" stroke="black" points="288.5,-76 288.5,-114 364.5,-114 364.5,-76 288.5,-76"/>
<text text-anchor="start" x="303.5" y="-98.8" font-family="Times,serif" font-size="14.00"> 1.2672 </text>
<text text-anchor="start" x="292.5" y="-83.8" font-family="Times,serif" font-size="14.00"> (MFLOPs) </text>
<polygon fill="#fad9f6" stroke="none" points="364.5,-76 364.5,-114 424.5,-114 424.5,-76 364.5,-76"/>
<polygon fill="none" stroke="black" points="364.5,-76 364.5,-114 424.5,-114 424.5,-76 364.5,-76"/>
<text text-anchor="start" x="368.5" y="-98.8" font-family="Times,serif" font-size="14.00"> 2386.03 </text>
<text text-anchor="start" x="370.5" y="-83.8" font-family="Times,serif" font-size="14.00"> (MB/s) </text>
<polygon fill="#ffffba" stroke="none" points="424.5,-76 424.5,-114 464.5,-114 464.5,-76 424.5,-76"/>
<polygon fill="none" stroke="black" points="424.5,-76 424.5,-114 464.5,-114 464.5,-76 424.5,-76"/>
<text text-anchor="start" x="428.5" y="-98.8" font-family="Times,serif" font-size="14.00"> 0.51 </text>
<text text-anchor="start" x="429.5" y="-83.8" font-family="Times,serif" font-size="14.00"> (ms)</text>
</g>
<!-- scale8&#45;&gt;fc9 -->
<g id="edge16" class="edge"><title>scale8&#45;&gt;fc9</title>
<path fill="none" stroke="black" d="M376.5,-199.867C376.5,-191.634 376.5,-182.957 376.5,-174.465"/>
<polygon fill="black" stroke="black" points="380,-174.241 376.5,-164.241 373,-174.241 380,-174.241"/>
</g>
<!-- fc9&#45;&gt;Output -->
<g id="edge18" class="edge"><title>fc9&#45;&gt;Output</title>
<path fill="none" stroke="black" d="M347.859,-71.7292C341.988,-62.448 336.002,-52.9873 330.752,-44.6894"/>
<polygon fill="black" stroke="black" points="333.689,-42.7848 325.385,-36.2053 327.774,-46.5273 333.689,-42.7848"/>
</g>
<!-- Summary -->
<g id="node20" class="node"><title>Summary</title>
<polygon fill="#c60000" stroke="none" points="420.5,-2087.5 420.5,-2110.5 605.5,-2110.5 605.5,-2087.5 420.5,-2087.5"/>
<polygon fill="none" stroke="black" points="420.5,-2087.5 420.5,-2110.5 605.5,-2110.5 605.5,-2087.5 420.5,-2087.5"/>
<text text-anchor="start" x="485.5" y="-2095.3" font-family="Times,serif" font-size="14.00">Summary</text>
<polygon fill="#e2e2e2" stroke="none" points="420.5,-2064.5 420.5,-2087.5 605.5,-2087.5 605.5,-2064.5 420.5,-2064.5"/>
<polygon fill="none" stroke="black" points="420.5,-2064.5 420.5,-2087.5 605.5,-2087.5 605.5,-2064.5 420.5,-2064.5"/>
<text text-anchor="start" x="460" y="-2072.3" font-family="Times,serif" font-size="14.00">12 SHV Processors</text>
<polygon fill="#dadada" stroke="none" points="420.5,-2041.5 420.5,-2064.5 605.5,-2064.5 605.5,-2041.5 420.5,-2041.5"/>
<polygon fill="none" stroke="black" points="420.5,-2041.5 420.5,-2064.5 605.5,-2064.5 605.5,-2041.5 420.5,-2041.5"/>
<text text-anchor="start" x="445.5" y="-2049.3" font-family="Times,serif" font-size="14.00">Inference time 27.13 ms</text>
<polygon fill="#e2e2e2" stroke="none" points="420.5,-2018.5 420.5,-2041.5 605.5,-2041.5 605.5,-2018.5 420.5,-2018.5"/>
<polygon fill="none" stroke="black" points="420.5,-2018.5 420.5,-2041.5 605.5,-2041.5 605.5,-2018.5 420.5,-2018.5"/>
<text text-anchor="start" x="439" y="-2026.3" font-family="Times,serif" font-size="14.00">Bandwidth 897.88 MB/sec</text>
<polygon fill="#dadada" stroke="none" points="420.5,-1995.5 420.5,-2018.5 605.5,-2018.5 605.5,-1995.5 420.5,-1995.5"/>
<polygon fill="none" stroke="black" points="420.5,-1995.5 420.5,-2018.5 605.5,-2018.5 605.5,-1995.5 420.5,-1995.5"/>
<text text-anchor="start" x="424.5" y="-2003.3" font-family="Times,serif" font-size="14.00">This network is Compute bound</text>
</g>
</g>
</svg>
